<svg width="26" height="26" viewBox="0 0 26 26" fill="none" xmlns="http://www.w3.org/2000/svg" class="tp__social-icon">
  <path fill-rule="evenodd" clip-rule="evenodd" d="M23.6283 17.9065L23.6288 17.8869C23.6999 16.5157 23.6995 15.4052 23.699 14.2303V14.2261C23.699 13.7548 23.699 13.2677 23.7034 12.75C23.699 12.2323 23.699 11.7452 23.699 11.2738V11.2697C23.6995 10.0948 23.6999 8.98437 23.6288 7.61256L23.6283 7.59343C23.5872 6.65172 23.4423 5.86583 23.1976 5.25732L23.1861 5.22861L23.1751 5.19996C22.9763 4.66455 22.6698 4.19559 22.2387 3.7663L22.2176 3.74578L22.197 3.72428C21.8289 3.33799 21.3633 3.03973 20.7735 2.81169L20.7649 2.80834C20.0894 2.54398 19.3083 2.39819 18.4435 2.37427L18.4005 2.37335L18.358 2.37046C17.5845 2.32025 16.2254 2.29495 14.3186 2.29495C13.9777 2.29495 13.6239 2.29587 13.2588 2.29731H13.2396C12.8744 2.29587 12.5207 2.29495 12.1799 2.29495C10.273 2.29495 8.91397 2.32025 8.14047 2.37046L8.09793 2.37335L8.05487 2.37427C7.19064 2.39819 6.40907 2.54398 5.73358 2.80834L5.72499 2.81169C5.13504 3.03973 4.66955 3.33799 4.30136 3.72428L4.2809 3.74578L4.2598 3.7663C3.82861 4.19559 3.52222 4.66455 3.32334 5.19996L3.31239 5.22861L3.30091 5.25732C3.05615 5.86583 2.91128 6.65172 2.87018 7.59343L2.86972 7.61256C2.79855 8.98439 2.79899 10.0948 2.79945 11.2698L2.79945 11.2738C2.79945 11.7452 2.79945 12.2323 2.79513 12.75C2.79945 13.2677 2.79945 13.7548 2.79945 14.2261L2.79945 14.2302C2.79899 15.4052 2.79855 16.5156 2.86972 17.8869L2.87018 17.9065C2.91128 18.8482 3.05615 19.6341 3.30091 20.2427L3.31239 20.2714L3.32334 20.3001C3.52222 20.8354 3.82861 21.3039 4.2598 21.7332L4.2809 21.7542L4.30136 21.7757C4.66955 22.162 5.13504 22.4603 5.72499 22.6883L5.73358 22.6916C6.40907 22.9555 7.19064 23.1018 8.05544 23.1257L8.09793 23.1267L8.14047 23.1295C8.91397 23.1797 10.2726 23.2051 12.1789 23.2051C12.5198 23.2051 12.874 23.2041 13.2396 23.2027H13.2588C13.6245 23.2041 13.9787 23.2051 14.3195 23.2051C16.226 23.2051 17.5845 23.1797 18.358 23.1295L18.4005 23.1267L18.443 23.1257C19.3083 23.1018 20.0894 22.9555 20.7649 22.6916L20.7735 22.6883C21.3633 22.4603 21.8289 22.162 22.197 21.7757L22.2176 21.7542L22.2387 21.7332C22.6698 21.3039 22.9763 20.8354 23.1751 20.3001L23.1861 20.2714L23.1976 20.2427C23.4423 19.6341 23.5872 18.8482 23.6283 17.9065ZM25.9941 11.5238C25.9941 11.9196 25.9946 12.3236 25.9984 12.7485V12.7514C25.9939 13.2664 25.994 13.7512 25.9942 14.2271C25.9946 15.4286 25.9949 16.5736 25.9209 18.0055C25.8722 19.1351 25.6962 20.1815 25.3263 21.1002C25.0026 21.9703 24.5036 22.717 23.8578 23.3599C23.254 23.9929 22.5002 24.4814 21.6009 24.8289C20.6721 25.1922 19.6405 25.3887 18.5062 25.4198C17.4502 25.4881 15.5892 25.5072 13.2493 25.4977C10.9093 25.5072 9.04828 25.4881 7.99232 25.4198C6.85791 25.3887 5.82633 25.1922 4.89754 24.8289C3.99832 24.4814 3.24448 23.9929 2.64069 23.3599C1.99488 22.717 1.49584 21.9703 1.17222 21.1002C0.802245 20.1815 0.626309 19.1351 0.577541 18.0055C0.503682 16.5714 0.504004 15.4251 0.504342 14.2216C0.504365 14.1401 0.504388 14.0583 0.504388 13.9762C0.504388 13.5803 0.503927 13.1764 0.500122 12.7514V12.7485C0.504587 12.2335 0.504435 11.7488 0.504285 11.2728C0.503908 10.0714 0.503549 8.92641 0.577541 7.49451C0.626309 6.36493 0.802245 5.31848 1.17222 4.39972C1.49584 3.52967 1.99488 2.78298 2.64069 2.14005C3.24448 1.50716 3.99832 1.01861 4.89754 0.671057C5.82633 0.307772 6.85791 0.111256 7.99232 0.080185C9.04828 0.0118744 10.9093 -0.00726412 13.2493 0.00230513C15.5892 -0.00726412 17.4502 0.0118744 18.5062 0.080185C19.6405 0.111256 20.6721 0.307772 21.6009 0.671057C22.5002 1.01861 23.254 1.50716 23.8578 2.14005C24.5036 2.78298 25.0026 3.52967 25.3263 4.39972C25.6962 5.31848 25.8722 6.36493 25.9209 7.49451C25.9948 8.92857 25.9945 10.0749 25.9941 11.2785C25.9941 11.36 25.9941 11.4417 25.9941 11.5238ZM20.0547 4.41404C19.2097 4.41404 18.5245 5.09916 18.5245 5.94425C18.5245 6.7894 19.2097 7.47453 20.0547 7.47453C20.8999 7.47453 21.585 6.7894 21.585 5.94425C21.585 5.09916 20.8999 4.41404 20.0547 4.41404ZM13.2493 16.9987C10.9055 16.9987 8.99904 15.0919 8.99904 12.7486C8.99904 10.4048 10.9055 8.49837 13.2493 8.49837C15.5931 8.49837 17.4995 10.4048 17.4995 12.7486C17.4995 15.0919 15.5931 16.9987 13.2493 16.9987ZM13.2493 6.20331C9.63436 6.20331 6.70398 9.13369 6.70398 12.7486C6.70398 16.3634 9.63436 19.2938 13.2493 19.2938C16.8641 19.2938 19.7945 16.3634 19.7945 12.7486C19.7945 9.13369 16.8641 6.20331 13.2493 6.20331Z" fill="#D3AE5D"></path>
</svg>