<svg width="34" height="34" viewBox="0 0 34 34" fill="none" xmlns="http://www.w3.org/2000/svg" class="icon icon-account">
  <path fill-rule="evenodd" clip-rule="evenodd" d="M27.8781 27.4825C26.9551 23.4139 23.3008 20.3435 18.9684 20.3435H15.0316C10.6803 20.3435 7.02604 23.4139 6.12188 27.5014C3.40942 24.7136 1.88366 20.9651 1.88366 17.0094C1.88366 8.66482 8.66482 1.88366 17.0094 1.88366C25.3352 1.88366 32.1163 8.66482 32.1163 17.0094C32.1163 20.9651 30.5906 24.6947 27.8781 27.4825M24.9019 29.8748C24.6571 30.0443 24.3745 30.195 24.1108 30.3269C23.7717 30.5152 23.4515 30.6848 23.0936 30.8355C22.6416 31.0238 22.1895 31.2122 21.7186 31.344C21.3795 31.4759 21.0404 31.5701 20.7014 31.6643C19.4958 31.9657 18.2526 32.1163 17.0094 32.1163C15.7474 32.1163 14.5042 31.9657 13.2798 31.6643C13.0349 31.5889 12.7712 31.5136 12.5263 31.4194C11.9612 31.2687 11.415 31.0615 10.8875 30.8166C10.5485 30.6848 10.1906 30.5152 9.87036 30.3269C9.51247 30.1573 9.17341 29.9501 8.85319 29.7241C8.83435 29.7241 8.81551 29.7241 8.79668 29.6864C8.45762 29.4981 8.1374 29.272 7.83601 29.0271C7.81717 29.0271 7.79834 28.9895 7.79834 28.9895C8.04321 25.2222 11.1889 22.2271 15.0316 22.2271H18.9684C22.7922 22.2271 25.938 25.2033 26.2017 28.9706C25.7873 29.3097 25.354 29.6111 24.9019 29.8748M17.0094 0C7.62881 0 0 7.62881 0 17.0094C0 21.9823 2.12853 26.6537 5.89584 29.8748C6.00886 29.9878 6.12188 30.082 6.2349 30.1762C9.26759 32.6438 13.0914 34 17.0094 34C20.9086 34 24.7324 32.6438 27.7463 30.1762C27.8781 30.082 27.9911 29.969 28.1042 29.8748C31.8526 26.6349 34 21.9823 34 17.0094C34 7.62881 26.3712 0 17.0094 0" fill="#3A3A3A"></path>
  <path fill-rule="evenodd" clip-rule="evenodd" d="M17 10.8423C15.259 10.8423 13.8423 12.259 13.8423 14C13.8423 15.741 15.259 17.1577 17 17.1577C18.741 17.1577 20.1577 15.741 20.1577 14C20.1577 12.259 18.741 10.8423 17 10.8423M17 19C14.2421 19 12 16.7561 12 14C12 11.2421 14.2421 9 17 9C19.7579 9 22 11.2421 22 14C22 16.7561 19.7579 19 17 19" fill="#3A3A3A"></path>
</svg>