<svg width="23" height="26" viewBox="0 0 23 26" fill="none" xmlns="http://www.w3.org/2000/svg" class="tp__social-icon">
  <mask id="mask0_0_3147" style="mask-type:luminance" maskUnits="userSpaceOnUse" x="0" y="0" width="23" height="26">
  <path fill-rule="evenodd" clip-rule="evenodd" d="M0.500122 0H22.7908V25.5H0.500122V0Z" fill="white"></path>
  </mask>
  <g mask="url(#mask0_0_3147)">
  <path fill-rule="evenodd" clip-rule="evenodd" d="M22.7909 6.10195V10.4951C20.5146 10.4951 18.4057 9.76897 16.6832 8.53634V17.4207C16.6832 20.5488 14.8931 23.2676 12.2824 24.6098C11.175 25.1789 9.92005 25.5 8.59169 25.5C4.1301 25.5 0.500122 21.8754 0.500122 17.4207C0.500122 12.9654 4.1301 9.3408 8.59169 9.3408C8.96752 9.3408 9.33781 9.36649 9.70002 9.41653V13.9031C9.34998 13.793 8.97765 13.7339 8.59169 13.7339C6.55364 13.7339 4.90104 15.3846 4.90104 17.4207C4.90104 19.4561 6.55364 21.1069 8.59169 21.1069C10.6297 21.1069 12.2824 19.4561 12.2824 17.4207V0H16.6832V0.00151115C16.6832 3.37061 19.4179 6.10195 22.7909 6.10195" fill="#D3AE5D"></path>
  </g>
</svg>