<svg width="28" height="20" viewBox="0 0 28 20" fill="none" xmlns="http://www.w3.org/2000/svg" class="tp__social-icon">
  <path fill-rule="evenodd" clip-rule="evenodd" d="M11.0844 13.7244V5.77598L18.0826 9.75035L11.0844 13.7244ZM26.6512 3.27474C26.4308 2.42839 25.729 1.29782 24.2838 0.896665C22.3886 0.411181 17.5658 0.385433 13.8232 0.334229H13.8228C11.9514 0.359976 9.81005 0.37904 7.89963 0.452505C5.98927 0.52597 4.30982 0.653778 3.36224 0.896665C1.91667 1.29782 1.21526 2.42839 0.994886 3.27474C0.620685 4.49499 0.435303 7.76319 0.435303 9.75C0.435303 11.7369 0.620685 15.005 0.994886 16.2253C1.21526 17.072 1.91667 18.2026 3.36224 18.6033C5.25746 19.0892 10.0803 19.1146 13.8228 19.1658H13.8232C15.6943 19.14 17.8357 19.121 19.7464 19.0475C21.6568 18.9741 23.3362 18.8463 24.2838 18.6033C25.729 18.2026 26.4308 17.072 26.6512 16.2253C27.025 15.005 27.2107 11.7369 27.2107 9.75C27.2107 7.76319 27.025 4.49499 26.6512 3.27474V3.27474Z" fill="#D3AE5D"></path>
</svg>